<svg width="42" height="63" viewBox="0 0 42 63" fill="none" xmlns="http://www.w3.org/2000/svg">
<path fill-rule="evenodd" clip-rule="evenodd" d="M20.9999 0.833344C32.2757 0.833344 41.4166 9.9742 41.4166 21.25C41.4166 24.6593 40.5833 27.8717 39.1039 30.6983L20.9999 62.0833L3.31532 31.4595C1.57492 28.4542 0.583252 24.9693 0.583252 21.25C0.583252 9.9742 9.7241 0.833344 20.9999 0.833344ZM20.9999 6.66668C12.9458 6.66668 6.41659 13.1959 6.41659 21.25C6.41659 23.566 6.95087 25.7882 7.96192 27.7943L8.4519 28.6893L20.9999 50.4167L33.6365 28.5362C34.9071 26.3423 35.5833 23.8555 35.5833 21.25C35.5833 13.1959 29.0541 6.66668 20.9999 6.66668ZM20.9999 12.5C25.8324 12.5 29.7499 16.4175 29.7499 21.25C29.7499 26.0825 25.8324 30 20.9999 30C16.1674 30 12.2499 26.0825 12.2499 21.25C12.2499 16.4175 16.1674 12.5 20.9999 12.5ZM20.9999 18.3333C19.3891 18.3333 18.0833 19.6392 18.0833 21.25C18.0833 22.8608 19.3891 24.1667 20.9999 24.1667C22.6107 24.1667 23.9166 22.8608 23.9166 21.25C23.9166 19.6392 22.6107 18.3333 20.9999 18.3333Z" fill="#C0B7E8"/>
</svg>
