<svg width="51" height="51" viewBox="0 0 51 51" fill="none" xmlns="http://www.w3.org/2000/svg">
<path d="M31.6457 11.9792C33.4579 12.3327 35.2568 13.1319 36.5623 14.4375C37.8679 15.7431 38.6671 17.542 39.0207 19.3542M32.8748 3.375C36.6399 3.79326 40.0279 5.61471 42.7082 8.29167C45.3885 10.9686 47.2019 14.3605 47.6249 18.125M47.6235 36.5051V43.1666C47.6339 45.7131 45.3442 47.8395 42.7732 47.6077C20.5833 47.625 3.375 30.2568 3.39237 8.21591C3.16082 5.65866 5.27671 3.37761 7.81993 3.37522H14.4947C15.5744 3.36461 16.6212 3.74621 17.4399 4.4489C19.7675 6.44667 21.2646 13.2274 20.6886 15.923C20.2389 18.0276 18.1174 19.4999 16.6751 20.9394C19.8423 26.4985 24.4543 31.1014 30.0245 34.2624C31.4668 32.823 32.9421 30.7057 35.0508 30.2568C37.7559 29.6811 44.5803 31.1803 46.5701 33.5241C47.2757 34.3552 47.6506 35.4161 47.6235 36.5051Z" stroke="#C0B7E8" stroke-width="6" stroke-linecap="round" stroke-linejoin="round"/>
</svg>
